<?xml version="1.0" standalone="no"?>
<!DOCTYPE svg PUBLIC "-//W3C//DTD SVG 1.1//EN" "http://www.w3.org/Graphics/SVG/1.1/DTD/svg11.dtd" >
<svg>
<metadata>
Created by FontForge 20090914 at Thu Jul 21 03:41:59 2016
 By www-data
Copyright (c) James Arboghast/Sentinel Type, 2003. All rights reserved. This font is free and distributable. You may: a) use it free of charge for any personal or commercial purpose, b) email it to anybody, upload it to archive sites &#38; bulletin boards and include it in CD &#38; software collections free of charge provided the documentation is intact. c) make derivative works from it but GET MY PERMISSION FIRST: arboghast@hotmail.com  You may not: a) charge money for it, b) make derivative works from it, rename it or claim it as your own work without my permission.  Don't argue with me.
</metadata>
<defs>
<font id="BigNoodleTitling" horiz-adv-x="402" >
  <font-face 
    font-family="BigNoodleTitling"
    font-weight="400"
    font-stretch="normal"
    units-per-em="1000"
    panose-1="2 0 7 8 3 4 2 4 1 0"
    ascent="800"
    descent="-200"
    x-height="718"
    cap-height="718"
    bbox="-75 -183 824 894.001"
    underline-thickness="40"
    underline-position="-45"
    unicode-range="U+0020-U+FB02"
  />
<missing-glyph horiz-adv-x="421" 
d="M38 0h345v644h-345v-644zM100 58v529h220v-529h-220z" />
    <glyph glyph-name=".notdef" horiz-adv-x="421" 
d="M38 0h345v644h-345v-644zM100 58v529h220v-529h-220z" />
    <glyph glyph-name="space" unicode=" " horiz-adv-x="160" 
 />
    <glyph glyph-name="space" unicode="&#xa0;" horiz-adv-x="160" 
 />
    <glyph glyph-name="exclam" unicode="!" horiz-adv-x="195" 
d="M151 718l-12 -524h-81l-13 524h106zM151 122v-122h-102v122h102z" />
    <glyph glyph-name="quotedbl" unicode="&#x22;" horiz-adv-x="275" 
d="M162 718h95l-12 -298h-71zM18 718h95l-12 -298h-71z" />
    <glyph glyph-name="numbersign" unicode="#" horiz-adv-x="465" 
d="M314 718h68l-21 -171h74l-8 -68h-74l-29 -235h74l-8 -68h-75l-21 -176h-68l21 176h-101l-21 -176h-68l21 176h-78l8 68h79l29 235h-79l8 68h79l21 171h68l-21 -171h101zM155 244h101l29 235h-101z" />
    <glyph glyph-name="dollar" unicode="$" horiz-adv-x="375" 
d="M229 525v62.998c0 28.667 -14 43 -42 43h-15c-27.333 0 -41 -14.333 -41 -43v-122c0 -13.333 2.66699 -22.333 8 -27s14 -10.667 26 -18l91 -49c20 -11.333 34.167 -20.166 42.5 -26.499s14.833 -14 19.5 -23s7 -26.167 7 -51.5v-150c0 -78.667 -36.667 -119 -110 -121
v-76h-69v76c-74 1.33301 -111 45.333 -111 132v36h96v-39c0 -28 14.333 -42 43 -42h17c25.333 0 38 14 38 42v119c0 13.333 -2.66699 22.333 -8 27s-14 10.667 -26 18l-91 51c-20 10.667 -34.5 19.667 -43.5 27s-15.5 16.833 -19.5 28.5s-6 26.834 -6 45.501v150
c0 80.667 37 121.667 111 123v76h69v-76c73.333 -2 110 -43 110 -123v-70h-96z" />
    <glyph glyph-name="percent" unicode="%" horiz-adv-x="619" 
d="M454 718l-228 -718h-61l228 718h61zM151 334h-32c-52.667 0 -79 25 -79 75v234c0 50 26.333 75 79 75h32c52.667 0 79 -25 79 -75v-234c0 -50 -26.333 -75 -79 -75zM142 663h-15c-14.667 0 -22 -9.33301 -22 -28v-219c0 -18.667 7.33301 -28 22 -28h15
c15.333 0 23 9.33301 23 28v219c0 18.667 -7.66699 28 -23 28zM500 0h-32c-52.667 0 -79 25 -79 75v234c0 50 26.333 75 79 75h32c52.667 0 79 -25 79 -75v-234c0 -50 -26.333 -75 -79 -75zM491 329h-15c-14.667 0 -22 -9.33301 -22 -28v-219c0 -18.667 7.33301 -28 22 -28
h15c15.333 0 23 9.33301 23 28v219c0 18.667 -7.66699 28 -23 28z" />
    <glyph glyph-name="ampersand" unicode="&#x26;" horiz-adv-x="373" 
d="M116 371c-42.667 10 -64 35.667 -64 77v147c0 82 38.333 123 115 123h38c76.667 0 115 -41 115 -123v-63h-90v64c0 28 -14.667 42 -44 42h-11c-22 -4 -33 -18 -33 -42v-142c0 -34.667 14.667 -52 44 -52h177v-71h-43v-209c0 -81.333 -38.667 -122 -116 -122h-48
c-77.333 0 -116 40.667 -116 122v163c0 44 25.333 72.667 76 86zM230 331h-43c-38 0 -57 -17.333 -57 -52v-157c0 -28 14.333 -42 43 -42h19c25.333 0 38 14 38 42v209z" />
    <glyph glyph-name="quotesingle" unicode="'" horiz-adv-x="119" 
d="M12 718h95l-12 -298h-71z" />
    <glyph glyph-name="parenleft" unicode="(" horiz-adv-x="206" 
d="M206 -183h-46c-73.333 0 -110 40.667 -110 122v656c0 82 36.667 123 110 123h46v-76h-30c-28 0 -42 -17 -42 -51v-648c0 -34 14 -51 42 -51h30v-75z" />
    <glyph glyph-name="parenright" unicode=")" horiz-adv-x="206" 
d="M0 -183h46c73.333 0 110 40.667 110 122v656c0 82 -36.667 123 -110 123h-46v-76h30c28 0 42 -17 42 -51v-648c0 -34 -14 -51 -42 -51h-30v-75z" />
    <glyph glyph-name="asterisk" unicode="*" horiz-adv-x="344" 
d="M82 720l70 -72l8 6l8 103l94 -31l-50 -90l4 -7l101 24l3 -88l-98 14l-4 -7l60 -79l-82 -47l-28 102l-9 3l-73 -76l-56 73l90 43l-2 9l-94 42z" />
    <glyph glyph-name="plus" unicode="+" horiz-adv-x="381" 
d="M238 300v-112h-88v112h-110v84h110v116h88v-116h103v-84h-103z" />
    <glyph glyph-name="comma" unicode="," horiz-adv-x="167" 
d="M31 -119l46 119h-47v124h107v-124l-48 -119h-58z" />
    <glyph glyph-name="hyphen" unicode="-" horiz-adv-x="244" 
d="M12 281v80h220v-80h-220z" />
    <glyph glyph-name="hyphen" unicode="&#xad;" horiz-adv-x="244" 
d="M12 281v80h220v-80h-220z" />
    <glyph glyph-name="period" unicode="." horiz-adv-x="162" 
d="M132 122v-122h-102v122h102z" />
    <glyph glyph-name="slash" unicode="/" horiz-adv-x="287" 
d="M287 768l-220 -818h-67l219 818h68z" />
    <glyph glyph-name="zero" unicode="0" horiz-adv-x="387" 
d="M160 0c-76.667 0 -115 41 -115 123v472c0 82 38.333 123 115 123h67c76.667 0 115 -41 115 -123v-472c0 -82 -38.333 -123 -115 -123h-67zM179 631c-25.333 0 -38 -14 -38 -42v-460c0 -28 14.333 -42 43 -42h24c25.333 0 38 14 38 42v460c0 28 -14.333 42 -43 42h-24z
" />
    <glyph glyph-name="one" unicode="1" horiz-adv-x="242" 
d="M37 559l-22 66c24.667 9.33301 45.667 22.333 63 39s31 34.667 41 54h10l63 -34v-684h-95v577z" />
    <glyph glyph-name="two" unicode="2" horiz-adv-x="369" 
d="M312 86l0.000976562 -85.9971h-258v221c0 12 1 22 3 30s5.5 15.5 10.5 22.5s13.833 16.833 26.5 29.5l97 93c7.33301 7.33301 13.166 13.666 17.499 18.999s7.33301 9.83301 9 13.5s2.66699 7.5 3 11.5s0.5 9.33301 0.5 16v133c0 28 -13.667 42 -41 42h-6
c-27.333 0 -41 -14 -41 -42v-74h-96v80c0 82 38.333 123 115 123h50c76.667 0 115 -41 115 -123v-172c0 -13.333 -1.83301 -25 -5.5 -35s-13.167 -22.333 -28.5 -37l-106 -102c-13.333 -12.667 -21 -21.334 -23 -26.001s-3.16699 -9.33398 -3.5 -14.001s-0.5 -11 -0.5 -19
v-104h162z" />
    <glyph glyph-name="three" unicode="3" horiz-adv-x="373" 
d="M258 369c50 -13.333 75 -43.667 75 -91v-156c0 -81.333 -38.333 -122 -115 -122h-65c-76.667 0 -115 40.667 -115 122v46h96v-39c0 -28 12.667 -42 38 -42h22c28.667 0 43 14 43 42v148c0 31.333 -18.667 47 -56 47h-26v81h14c37.333 0 56 15.667 56 47v136
c0 28 -14.333 42 -43 42h-13c-25.333 0 -38 -14 -38 -42v-73h-96v80c0 82 38.333 123 115 123h56c76.667 0 115 -41 115 -123v-143c0 -45.333 -21 -73 -63 -83z" />
    <glyph glyph-name="four" unicode="4" horiz-adv-x="367" 
d="M352 168h-55v-168h-94v168h-168l-20 81l186 469h96v-469h55v-81zM213 527h-5l-91 -278h89z" />
    <glyph glyph-name="five" unicode="5" horiz-adv-x="364" 
d="M40 168h96v-39c0 -28 12.667 -42 38 -42h11c28.667 0 43 14 43 42v164c0 31.333 -13.333 47 -40 47h-145v378h271v-89h-181v-202h76c76.667 0 115 -42.333 115 -127v-173c0 -84.667 -38.333 -127 -115 -127h-54c-76.667 0 -115 40.667 -115 122v46z" />
    <glyph glyph-name="six" unicode="6" horiz-adv-x="385" 
d="M238 515v64c0 34.667 -14.333 52 -43 52h-16c-25.333 0 -38 -14 -38 -42v-218l60 40h29c73.333 0 110 -41 110 -123v-167c0 -80.667 -36.667 -121 -110 -121h-75c-73.333 -0 -110 40.333 -110 121v474c0 82 36.667 123 110 123h69c73.333 0 110 -41 110 -123v-80h-96z
M141 324v-194c0 -28.667 14 -43 42 -43h18c28.667 0 43 14.333 43 43v142c0 34.667 -14.333 52 -43 52h-60z" />
    <glyph glyph-name="seven" unicode="7" horiz-adv-x="303" 
d="M65 0l124 629h-179v89h251l27 -52l-128 -666h-95z" />
    <glyph glyph-name="eight" unicode="8" horiz-adv-x="383" 
d="M116 366c-46 10 -69 39 -69 87v142c0 82 38.333 123 115 123h59c76.667 0 115 -41 115 -123v-143c0 -48 -21 -77 -63 -87c46.667 -13.333 70 -42 70 -86v-157c0 -81.333 -38.333 -122 -115 -122h-73c-76.667 0 -115 40.667 -115 122v158c0 44 25.333 72.667 76 86z
M179 87l25 0.000976562c28.667 0 43 17.333 43 52v134c0 34 -18.333 51 -55 51c-37.333 -0.666992 -56 -17.334 -56 -50.001v-135c0 -34.667 14.333 -52 43 -52zM143 578.001v-119c0 -34.667 14.333 -52 43 -52h11c28.667 4.66699 43 21.667 43 51v120
c0 34.667 -14.333 52 -43 52h-11c-28.667 0 -43 -17.333 -43 -52z" />
    <glyph glyph-name="nine" unicode="9" horiz-adv-x="383" 
d="M147 168v-29c0 -34.667 14.333 -52 43 -52h14c25.333 0 38 14 38 42v174l-60 -40h-22c-76.667 0 -115 42.667 -115 128v201c0 84 38.333 126 115 126h63c76.667 0 115 -42 115 -126v-464c0 -85.333 -38.333 -128 -115 -128h-57c-76.667 0 -115 42.667 -115 128v40h96z
M242 350v238c0 28.667 -15.667 43 -47 43h-11c-28.667 0 -43 -14.333 -43 -43v-186c0 -34.667 14.333 -52 43 -52h58z" />
    <glyph glyph-name="colon" unicode=":" horiz-adv-x="160" 
d="M130 122v-122h-102v122h102zM130 515v-122h-102v122h102z" />
    <glyph glyph-name="semicolon" unicode=";" horiz-adv-x="160" 
d="M42 -119l46 119h-47v124h107v-124l-48 -119h-58zM130 515v-122h-102v122h102z" />
    <glyph glyph-name="semicolon" unicode="&#x37e;" horiz-adv-x="160" 
d="M42 -119l46 119h-47v124h107v-124l-48 -119h-58zM130 515v-122h-102v122h102z" />
    <glyph glyph-name="less" unicode="&#x3c;" horiz-adv-x="308" 
d="M260 48v117l-159 144l159 145v119l-248 -232v-63z" />
    <glyph glyph-name="equal" unicode="=" horiz-adv-x="370" 
d="M40 384v82h290v-82h-290zM40 222v82h290v-82h-290z" />
    <glyph glyph-name="greater" unicode="&#x3e;" horiz-adv-x="308" 
d="M48 46l248 232v64l-248 229v-117l159 -144l-159 -145v-119z" />
    <glyph glyph-name="question" unicode="?" horiz-adv-x="376" 
d="M121 194v120.999c0 14.667 1.16699 26 3.5 34s5.33301 14.333 9 19s10.167 10.667 19.5 18l69 51c8 6.66699 13 12.834 15 18.501s3 15.167 3 28.5v103c0 29.333 -14 44 -42 44h-37c-26.667 0 -40 -14.667 -40 -44v-52h-96v60c0 82 38.333 123 115 123h82
c76 0 114 -41 114 -123v-146c0 -14.667 -1.16699 -26 -3.5 -34s-6 -14.667 -11 -20s-11.5 -11 -19.5 -17l-67 -52c-8 -6 -13 -11.833 -15 -17.5s-3 -15.167 -3 -28.5v-86h-96zM222 121.999v-122h-102v122h102z" />
    <glyph glyph-name="at" unicode="@" horiz-adv-x="559" 
d="M394 165h49v385c0 36 -10 62.667 -30 80s-51 26 -93 26h-90c-37.333 -0.666992 -65.666 -11.5 -84.999 -32.5s-29 -49.833 -29 -86.5v-474h393v-63h-459v533c0 62 16.5 108.5 49.5 139.5s75.5 46.167 127.5 45.5h90c71.333 0 121.166 -15.167 149.499 -45.5
s42.5 -69.5 42.5 -117.5v-449h-186v174h-78v-174h-71v410c0 60.667 28.333 91 85 91h50c56.667 0 85 -30.333 85 -91v-351zM323 345v167c0 20.667 -10.333 31 -31 31h-16c-20.667 0 -31 -10.333 -31 -31v-167h78z" />
    <glyph glyph-name="A" unicode="A" horiz-adv-x="382" 
d="M136 0h-96v595c0 82 38.333 123 115 123h72c76.667 0 115 -41 115 -123v-595h-96v263h-110v-263zM246 350v239c0 28 -14 42 -42 42h-26c-28 0 -42 -14 -42 -42v-239h110z" />
    <glyph glyph-name="B" unicode="B" horiz-adv-x="382" 
d="M268 369c52.667 -14.667 79 -42.001 79 -82.001v-180c0 -71.333 -36.333 -107 -109 -107h-193v718h164c85.333 0 128 -43.333 128 -130v-138c0 -41.333 -23 -66.666 -69 -75.999v-5zM141 86.999h72c25.333 0 38 10.333 38 31v159c0 34 -19 51 -57 51h-53v-241z
M141 414.999h45c36.667 0 55 17.333 55 52v112c0 34.667 -14.333 52 -43 52h-57v-216z" />
    <glyph glyph-name="C" unicode="C" horiz-adv-x="362" 
d="M332 168v-46c0 -81.333 -38.333 -122 -115 -122h-62c-76.667 0 -115 40.667 -115 122v474c0 81.333 38.333 122 115 122h62c76.667 0 115 -40.667 115 -122v-81h-96v74c0 28 -14.333 42 -43 42h-19c-25.333 0 -38 -14 -38 -42v-460c0 -28 12.667 -42 38 -42h24
c25.333 0 38 14 38 42v39h96z" />
    <glyph glyph-name="D" unicode="D" horiz-adv-x="387" 
d="M45 0v718h167c90 0 135 -46 135 -138v-476c0 -69.333 -38.333 -104 -115 -104h-187zM141 87h72c25.333 0 38 10.667 38 32v460c0 34.667 -14.333 52 -43 52h-67v-544z" />
    <glyph glyph-name="E" unicode="E" horiz-adv-x="307" 
d="M45 0v718h238v-87h-142v-218h126v-87h-126v-239h142v-87h-238z" />
    <glyph glyph-name="F" unicode="F" horiz-adv-x="303" 
d="M267 413v-87h-126v-326h-96v718h238v-87h-142v-218h126z" />
    <glyph glyph-name="G" unicode="G" horiz-adv-x="372" 
d="M193 263v87h146v-350h-188c-74 -0 -111 40.333 -111 121v474c0 82 37 123 111 123h66c81.333 0 122 -41.667 122 -125v-78h-96v64c0 34.667 -13.667 52 -41 52h-24c-28 0 -42 -17.333 -42 -52v-440c0 -34.667 14 -52 42 -52h65v176h-50z" />
    <glyph glyph-name="H" unicode="H" horiz-adv-x="400" 
d="M259 0v326h-118v-326h-96v718h96v-305h118v305h96v-718h-96z" />
    <glyph glyph-name="I" unicode="I" horiz-adv-x="186" 
d="M45 0v718h96v-718h-96z" />
    <glyph glyph-name="J" unicode="J" horiz-adv-x="257" 
d="M10 87h63c28.667 0 43 17.333 43 52v579h96v-597c0 -80.667 -37 -121 -111 -121h-91v87z" />
    <glyph glyph-name="K" unicode="K" horiz-adv-x="372" 
d="M141 0h-96v718h96v-718zM362 0h-96l-120 351v6l100 361h88l-101 -357z" />
    <glyph glyph-name="L" unicode="L" horiz-adv-x="283" 
d="M273 0h-228v718h96v-631h132v-87z" />
    <glyph glyph-name="M" unicode="M" horiz-adv-x="480" 
d="M240 296l89 422h106v-718h-96l10 470l-72 -340h-74l-72 340l10 -470h-96v718h106z" />
    <glyph glyph-name="N" unicode="N" horiz-adv-x="385" 
d="M244 371v347h96v-718h-96v143l-103 327v-470h-96v718h96z" />
    <glyph glyph-name="O" unicode="O" 
d="M156 0c-77.333 0 -116 40.667 -116 122v473c0 82 38.333 123 115 123h92c76.667 0 115 -41 115 -123v-473c0 -81.333 -38.667 -122 -116 -122h-90zM179 87h49c25.333 0 38 14 38 42v460c0 28 -14.333 42 -43 42h-45c-28 0 -42 -14 -42 -42v-460c0 -28 14.333 -42 43 -42z
" />
    <glyph glyph-name="P" unicode="P" horiz-adv-x="367" 
d="M45 718h175c77.333 0 116 -41 116 -123v-213c0 -81.333 -38.333 -122 -115 -122h-80v-260h-96v718zM141 347h61c25.333 0 38 14 38 42v200c0 28 -14.333 42 -43 42h-56v-284z" />
    <glyph glyph-name="Q" unicode="Q" horiz-adv-x="417" 
d="M417 0h-261c-77.333 -0 -116 40.333 -116 121v474c0 82 38.333 123 115 123h92c76.667 0 115 -41 115 -123v-508h55v-87zM266 87v502c0 28 -14.333 42 -43 42h-45c-28 0 -42 -14 -42 -42v-460c0 -28 14.333 -42 43 -42h87z" />
    <glyph glyph-name="R" unicode="R" horiz-adv-x="378" 
d="M45 718l188 0.000976562c73.333 0 110 -41 110 -123v-177c0 -62.667 -19 -102.334 -57 -119.001l67 -299h-91l-63 290h-58v-290h-96v718zM141 372.001h63c28.667 0 43 17.333 43 52v155c0 34.667 -14.333 52 -43 52h-63v-259z" />
    <glyph glyph-name="S" unicode="S" horiz-adv-x="360" 
d="M229 525v62.998c0 28.667 -14 43 -42 43h-15c-27.333 0 -41 -14.333 -41 -43v-119c0 -13.333 2.66699 -22.333 8 -27s14 -10.667 26 -18l91 -49c20 -11.333 34.167 -20.166 42.5 -26.499s14.833 -14 19.5 -23s7 -26.167 7 -51.5v-153c0 -80.667 -38.667 -121 -116 -121
h-59c-76.667 0 -115 44 -115 132v36h96v-39c0 -28 14.333 -42 43 -42h17c25.333 0 38 14 38 42v122c0 13.333 -2.66699 22.333 -8 27s-14 10.667 -26 18l-91 51c-20 10.667 -34.5 19.667 -43.5 27s-15.5 16.833 -19.5 28.5s-6 26.834 -6 45.501v147c0 82 38.333 123 115 123
h60c76.667 0 115 -41 115 -123v-70h-96z" />
    <glyph glyph-name="T" unicode="T" horiz-adv-x="300" 
d="M198 631v-631h-96v631h-92v87h280v-87h-92z" />
    <glyph glyph-name="U" unicode="U" 
d="M357 718v-582c0 -90.667 -38.667 -136 -116 -136h-81c-76.667 0 -115 45.667 -115 137v581h96v-584c0 -31.333 14 -47 42 -47h39c26 0 39 15.667 39 47v584h96z" />
    <glyph glyph-name="V" unicode="V" horiz-adv-x="366" 
d="M356 718l-116 -718h-114l-116 718h95l78 -548l78 548h95z" />
    <glyph glyph-name="W" unicode="W" horiz-adv-x="557" 
d="M547 718l-106 -718h-104l-59 416l-58 -416h-104l-106 718h95l68 -538l68 538h75l68 -538l68 538h95z" />
    <glyph glyph-name="X" unicode="X" horiz-adv-x="333" 
d="M317 0h-93l-54 273h-2l-65 -273h-89l91 363l-85 355h94l54 -265h2l60 265h89l-86 -355z" />
    <glyph glyph-name="Y" unicode="Y" horiz-adv-x="350" 
d="M224 0h-96v264l-118 454h95l72 -312h3l65 312h95l-116 -454v-264z" />
    <glyph glyph-name="Z" unicode="Z" horiz-adv-x="293" 
d="M121 87h162v-87h-266l-7 34l151 596h-135v88h217l20 -41z" />
    <glyph glyph-name="bracketleft" unicode="[" horiz-adv-x="205" 
d="M50 -183v901h155v-71h-72v-759h72v-71h-155z" />
    <glyph glyph-name="backslash" unicode="\" horiz-adv-x="287" 
d="M68 768l219 -818h-67l-220 818h68z" />
    <glyph glyph-name="bracketright" unicode="]" horiz-adv-x="205" 
d="M0 -183v71h72v759h-72v71h155v-901h-155z" />
    <glyph glyph-name="underscore" unicode="_" horiz-adv-x="275" 
d="M0 -71v71h275v-71h-275z" />
    <glyph glyph-name="grave" unicode="`" horiz-adv-x="152" 
d="M8 680h88l46 -118h-68z" />
    <glyph glyph-name="a" unicode="a" horiz-adv-x="382" 
d="M136 0h-96v595c0 82 38.333 123 115 123h72c76.667 0 115 -41 115 -123v-595h-96v263h-110v-263zM246 350v239c0 28 -14 42 -42 42h-26c-28 0 -42 -14 -42 -42v-239h110z" />
    <glyph glyph-name="b" unicode="b" horiz-adv-x="382" 
d="M268 369c52.667 -14.667 79 -42.001 79 -82.001v-180c0 -71.333 -36.333 -107 -109 -107h-193v718h164c85.333 0 128 -43.333 128 -130v-138c0 -41.333 -23 -66.666 -69 -75.999v-5zM141 86.999h72c25.333 0 38 10.333 38 31v159c0 34 -19 51 -57 51h-53v-241z
M141 414.999h45c36.667 0 55 17.333 55 52v112c0 34.667 -14.333 52 -43 52h-57v-216z" />
    <glyph glyph-name="c" unicode="c" horiz-adv-x="362" 
d="M332 168v-46c0 -81.333 -38.333 -122 -115 -122h-62c-76.667 0 -115 40.667 -115 122v474c0 81.333 38.333 122 115 122h62c76.667 0 115 -40.667 115 -122v-81h-96v74c0 28 -14.333 42 -43 42h-19c-25.333 0 -38 -14 -38 -42v-460c0 -28 12.667 -42 38 -42h24
c25.333 0 38 14 38 42v39h96z" />
    <glyph glyph-name="d" unicode="d" horiz-adv-x="387" 
d="M45 0v718h167c90 0 135 -46 135 -138v-476c0 -69.333 -38.333 -104 -115 -104h-187zM141 87h72c25.333 0 38 10.667 38 32v460c0 34.667 -14.333 52 -43 52h-67v-544z" />
    <glyph glyph-name="e" unicode="e" horiz-adv-x="307" 
d="M45 0v718h238v-87h-142v-218h126v-87h-126v-239h142v-87h-238z" />
    <glyph glyph-name="f" unicode="f" horiz-adv-x="303" 
d="M267 413v-87h-126v-326h-96v718h238v-87h-142v-218h126z" />
    <glyph glyph-name="g" unicode="g" horiz-adv-x="372" 
d="M193 263v87h146v-350h-188c-74 -0 -111 40.333 -111 121v474c0 82 37 123 111 123h66c81.333 0 122 -41.667 122 -125v-78h-96v64c0 34.667 -13.667 52 -41 52h-24c-28 0 -42 -17.333 -42 -52v-440c0 -34.667 14 -52 42 -52h65v176h-50z" />
    <glyph glyph-name="h" unicode="h" horiz-adv-x="400" 
d="M259 0v326h-118v-326h-96v718h96v-305h118v305h96v-718h-96z" />
    <glyph glyph-name="i" unicode="i" horiz-adv-x="186" 
d="M45 0v718h96v-718h-96z" />
    <glyph glyph-name="j" unicode="j" horiz-adv-x="257" 
d="M10 87h63c28.667 0 43 17.333 43 52v579h96v-597c0 -80.667 -37 -121 -111 -121h-91v87z" />
    <glyph glyph-name="k" unicode="k" horiz-adv-x="372" 
d="M141 0h-96v718h96v-718zM362 0h-96l-120 351v6l100 361h88l-101 -357z" />
    <glyph glyph-name="l" unicode="l" horiz-adv-x="283" 
d="M273 0h-228v718h96v-631h132v-87z" />
    <glyph glyph-name="m" unicode="m" horiz-adv-x="480" 
d="M240 296l89 422h106v-718h-96l10 470l-72 -340h-74l-72 340l10 -470h-96v718h106z" />
    <glyph glyph-name="n" unicode="n" horiz-adv-x="385" 
d="M244 371v347h96v-718h-96v143l-103 327v-470h-96v718h96z" />
    <glyph glyph-name="o" unicode="o" 
d="M156 0c-77.333 0 -116 40.667 -116 122v473c0 82 38.333 123 115 123h92c76.667 0 115 -41 115 -123v-473c0 -81.333 -38.667 -122 -116 -122h-90zM179 87h49c25.333 0 38 14 38 42v460c0 28 -14.333 42 -43 42h-45c-28 0 -42 -14 -42 -42v-460c0 -28 14.333 -42 43 -42z
" />
    <glyph glyph-name="p" unicode="p" horiz-adv-x="367" 
d="M45 718h175c77.333 0 116 -41 116 -123v-213c0 -81.333 -38.333 -122 -115 -122h-80v-260h-96v718zM141 347h61c25.333 0 38 14 38 42v200c0 28 -14.333 42 -43 42h-56v-284z" />
    <glyph glyph-name="q" unicode="q" horiz-adv-x="417" 
d="M417 0h-261c-77.333 -0 -116 40.333 -116 121v474c0 82 38.333 123 115 123h92c76.667 0 115 -41 115 -123v-508h55v-87zM266 87v502c0 28 -14.333 42 -43 42h-45c-28 0 -42 -14 -42 -42v-460c0 -28 14.333 -42 43 -42h87z" />
    <glyph glyph-name="r" unicode="r" horiz-adv-x="378" 
d="M45 718l188 0.000976562c73.333 0 110 -41 110 -123v-177c0 -62.667 -19 -102.334 -57 -119.001l67 -299h-91l-63 290h-58v-290h-96v718zM141 372.001h63c28.667 0 43 17.333 43 52v155c0 34.667 -14.333 52 -43 52h-63v-259z" />
    <glyph glyph-name="s" unicode="s" horiz-adv-x="360" 
d="M229 525v62.998c0 28.667 -14 43 -42 43h-15c-27.333 0 -41 -14.333 -41 -43v-119c0 -13.333 2.66699 -22.333 8 -27s14 -10.667 26 -18l91 -49c20 -11.333 34.167 -20.166 42.5 -26.499s14.833 -14 19.5 -23s7 -26.167 7 -51.5v-153c0 -80.667 -38.667 -121 -116 -121
h-59c-76.667 0 -115 44 -115 132v36h96v-39c0 -28 14.333 -42 43 -42h17c25.333 0 38 14 38 42v122c0 13.333 -2.66699 22.333 -8 27s-14 10.667 -26 18l-91 51c-20 10.667 -34.5 19.667 -43.5 27s-15.5 16.833 -19.5 28.5s-6 26.834 -6 45.501v147c0 82 38.333 123 115 123
h60c76.667 0 115 -41 115 -123v-70h-96z" />
    <glyph glyph-name="t" unicode="t" horiz-adv-x="300" 
d="M198 631v-631h-96v631h-92v87h280v-87h-92z" />
    <glyph glyph-name="u" unicode="u" 
d="M357 718v-582c0 -90.667 -38.667 -136 -116 -136h-81c-76.667 0 -115 45.667 -115 137v581h96v-584c0 -31.333 14 -47 42 -47h39c26 0 39 15.667 39 47v584h96z" />
    <glyph glyph-name="v" unicode="v" horiz-adv-x="366" 
d="M356 718l-116 -718h-114l-116 718h95l78 -548l78 548h95z" />
    <glyph glyph-name="w" unicode="w" horiz-adv-x="557" 
d="M547 718l-106 -718h-104l-59 416l-58 -416h-104l-106 718h95l68 -538l68 538h75l68 -538l68 538h95z" />
    <glyph glyph-name="x" unicode="x" horiz-adv-x="333" 
d="M317 0h-93l-54 273h-2l-65 -273h-89l91 363l-85 355h94l54 -265h2l60 265h89l-86 -355z" />
    <glyph glyph-name="y" unicode="y" horiz-adv-x="350" 
d="M224 0h-96v264l-118 454h95l72 -312h3l65 312h95l-116 -454v-264z" />
    <glyph glyph-name="z" unicode="z" horiz-adv-x="293" 
d="M121 87h162v-87h-266l-7 34l151 596h-135v88h217l20 -41z" />
    <glyph glyph-name="braceleft" unicode="{" horiz-adv-x="227" 
d="M83 303c42 -13.333 63 -42 63 -86v-279c0 -34 14.333 -51 43 -51h38v-69h-54c-74 0 -111 41 -111 123v267c0 34.667 -19 52 -57 52v81c38 0 57 17.333 57 52v202c0 82 37 123 111 123h54v-69h-38c-28.667 0 -43 -17 -43 -51v-218c0 -42 -21 -67.667 -63 -77z" />
    <glyph glyph-name="bar" unicode="|" horiz-adv-x="190" 
d="M51 -80v878h88v-878h-88z" />
    <glyph glyph-name="braceright" unicode="}" horiz-adv-x="227" 
d="M144 303c-42.667 9.33301 -64 35 -64 77v218c0 34 -14.333 51 -43 51h-37v69h54c73.333 0 110 -41 110 -123v-202c0 -34.667 19.333 -52 58 -52v-81c-38.667 0 -58 -17.333 -58 -52v-267c0 -82 -36.667 -123 -110 -123h-54v69h37c28.667 0 43 17 43 51v279
c0 44 21.333 72.667 64 86z" />
    <glyph glyph-name="Zcaron" horiz-adv-x="293" 
d="M121 87h162v-87h-266l-7 34l151 596h-135v88h217l20 -41zM160 816l42 58h74l-86 -112h-60l-86 112h74z" />
    <glyph glyph-name="Zcaron" unicode="&#x17d;" horiz-adv-x="293" 
d="M121 87h162v-87h-266l-7 34l151 596h-135v88h217l20 -41zM160 816l42 58h74l-86 -112h-60l-86 112h74z" />
    <glyph glyph-name="zcaron" horiz-adv-x="293" 
d="M121 87h162v-87h-266l-7 34l151 596h-135v88h217l20 -41zM160 826l42 58h74l-86 -112h-60l-86 112h74z" />
    <glyph glyph-name="zcaron" unicode="&#x17e;" horiz-adv-x="293" 
d="M121 87h162v-87h-266l-7 34l151 596h-135v88h217l20 -41zM160 826l42 58h74l-86 -112h-60l-86 112h74z" />
    <glyph glyph-name="exclamdown" unicode="&#xa1;" horiz-adv-x="195" 
d="M46 0l12 524h81l13 -524h-106zM46 596v122h102v-122h-102z" />
    <glyph glyph-name="cent" unicode="&#xa2;" horiz-adv-x="347" 
d="M221 511v37c0 26 -13.667 39 -41 39h-9c-27.333 0 -41 -13 -41 -39v-295c0 -26 13.667 -39 41 -39h9c27.333 0 41 13 41 39v34h86v-42c0 -68 -32 -102 -96 -102h-3v-60h-70v60h-2c-64 0 -96 34 -96 102v311c0 68 31.667 102 95 102h3v60h70v-60h3c64 0 96 -34 96 -102
v-45h-86z" />
    <glyph glyph-name="sterling" unicode="&#xa3;" horiz-adv-x="393" 
d="M363 180v-59c0 -80.667 -38.667 -121 -116 -121h-208v350h-36v77h36v168c0 82 38.333 123 115 123h93c77.333 0 116 -41 116 -123v-63h-96v57c0 28 -14.667 42 -44 42h-46c-28 0 -42 -14 -42 -42v-162h110v-77h-110v-263h94c25.333 0 38 14 38 42v51h96z" />
    <glyph glyph-name="currency" unicode="&#xa4;" horiz-adv-x="384" 
d="M237 448v-58h-95v-42h62v-59h-62v-160c0 -28 14 -42 42 -42h25c26 0 39 13.333 39 40v29h96v-35c0 -80.667 -38.667 -121 -116 -121h-67c-76.667 0 -115 42 -115 126v163h-36v59h36v42h-36v58h36v147c0 82 38.333 123 115 123h67c77.333 0 116 -41 116 -123v-39h-96v32
c0 28.667 -14.667 43 -44 43h-20c-28 0 -42 -14 -42 -42v-141h95z" />
    <glyph glyph-name="yen" unicode="&#xa5;" horiz-adv-x="350" 
d="M286 173v-49h-62v-124h-96v124h-62v49h62v32h-62v49h62v10l-118 454h95l72 -312h3l65 312h95l-116 -454v-10h62v-49h-62v-32h62z" />
    <glyph glyph-name="brokenbar" unicode="&#xa6;" horiz-adv-x="210" 
d="M150 348v370h-90v-370h90zM150 -182v370h-90v-370h90z" />
    <glyph glyph-name="section" unicode="&#xa7;" horiz-adv-x="342" 
d="M215 575l-0.000976562 32.9961c0 26 -12.667 39 -38 39c-27.333 0 -41 -13 -41 -39v-72c0 -9.33301 2 -15.5 6 -18.5s10.333 -6.5 19 -10.5l68 -26l28.5 -11.5c9 -3.66699 16.5 -7.83398 22.5 -12.501s10.667 -10.667 14 -18s5 -17 5 -29v-65
c0 -36 -9.33301 -61.333 -28 -76c8.66699 -5.33301 14.834 -11.666 18.501 -18.999s5.5 -17 5.5 -29v-119c0 -68 -32 -102 -96 -102h-63c-64 0 -96 34 -96 102v54h87v-47c0 -26 13.333 -39 40 -39c26 0 39 13 39 39v66c0 10.667 -1.5 19.334 -4.5 26.001
s-11.167 12.667 -24.5 18l-65 24c-9.33301 2.66699 -18.166 5.83398 -26.499 9.50098s-16 8.16699 -23 13.5s-12.333 11.833 -16 19.5s-5.5 16.834 -5.5 27.501v64c0 38.667 9.66699 64 29 76c-8.66699 6.66699 -14.834 13.834 -18.501 21.501s-5.5 17.167 -5.5 28.5v113
c0 68 32 102 96 102h64c64 0 96 -34 96 -102v-41h-87zM210.999 375.996c0 25.333 -13 38 -39 38c-27.333 0 -41 -12.667 -41 -38v-27c0 -26 13.667 -39 41 -39c26 0 39 13 39 39v27z" />
    <glyph glyph-name="dieresis" unicode="&#xa8;" horiz-adv-x="280" 
d="M110 662v-100h-80v100h80zM250 662v-100h-80v100h80z" />
    <glyph glyph-name="copyright" unicode="&#xa9;" horiz-adv-x="618" 
d="M351 444v48c0 25.333 -13.667 38 -41 38c-26.667 0 -40 -12.667 -40 -38v-267c0 -25.333 13.333 -38 40 -38c27.333 0 41 12.667 41 38v43h80v-48c0 -68 -32 -102 -96 -102h-53c-64 0 -96 34 -96 102v277c0 68 32 102 96 102h53c64 0 96 -34 96 -102v-53h-80zM192 0
c-98 0 -147 52.333 -147 157v402c0 106 49 159 147 159h234c98 0 147 -53 147 -159v-402c0 -104.667 -49 -157 -147 -157h-234zM200 72h216c52.667 0 79 29 79 87v399c0 58.667 -26.333 88 -79 88h-216c-52 0 -78 -29.333 -78 -88v-399c0 -58 26 -87 78 -87z" />
    <glyph glyph-name="ordfeminine" unicode="&#xaa;" horiz-adv-x="300" 
d="M106 230h-76v376c0 74.667 38.333 112 115 112h10c76.667 0 115 -37.333 115 -112v-376h-76v151h-88v-151zM194 448v159c0 30 -14 45 -42 45h-4c-28 0 -42 -15 -42 -45v-159h88z" />
    <glyph glyph-name="guillemotleft" unicode="&#xab;" horiz-adv-x="387" 
d="M201 140l-103 208l103 208h-83l-106 -208l106 -208h83zM357 140l-103 208l103 208h-83l-106 -208l106 -208h83z" />
    <glyph glyph-name="logicalnot" unicode="&#xac;" horiz-adv-x="416" 
d="M42 300v84h328v-176h-87v92h-241z" />
    <glyph glyph-name="registered" unicode="&#xae;" horiz-adv-x="614" 
d="M433 122h-76l-46 180h-39v-180h-84v468h164c50 0 75 -28 75 -84v-121c0 -40 -14.333 -66 -43 -78zM272 371h41c20 0 30 12 30 36v74c0 23.333 -10 35 -30 35h-41v-145zM192 0c-98 0 -147 52.333 -147 157v402c0 106 49 159 147 159h230c98 0 147 -53 147 -159v-402
c0 -104.667 -49 -157 -147 -157h-230zM200 72h212c52.667 0 79 29 79 87v399c0 58.667 -26.333 88 -79 88h-212c-52 0 -78 -29.333 -78 -88v-399c0 -58 26 -87 78 -87z" />
    <glyph glyph-name="macron" unicode="&#xaf;" horiz-adv-x="286" 
d="M268 602v71h-250v-71h250z" />
    <glyph glyph-name="macron" unicode="&#x2c9;" horiz-adv-x="286" 
d="M268 602v71h-250v-71h250z" />
    <glyph glyph-name="degree" unicode="&#xb0;" horiz-adv-x="274" 
d="M30 617c0 -15.333 2.83301 -29.5 8.5 -42.5s13.167 -24.167 22.5 -33.5s20.5 -16.833 33.5 -22.5s26.833 -8.5 41.5 -8.5s28.667 2.83301 42 8.5s24.833 13.167 34.5 22.5s17.334 20.5 23.001 33.5s8.5 27.167 8.5 42.5c0 14.667 -2.83301 28.5 -8.5 41.5
s-13.334 24.333 -23.001 34s-21.167 17.334 -34.5 23.001s-27.333 8.5 -42 8.5s-28.5 -2.83301 -41.5 -8.5s-24.167 -13.334 -33.5 -23.001s-16.833 -21 -22.5 -34s-8.5 -26.833 -8.5 -41.5zM76 617c0 17.333 5.83301 31.833 17.5 43.5s25.834 17.5 42.501 17.5
c16 0 30 -5.83301 42 -17.5s18 -26.167 18 -43.5c0 -16 -6 -29.833 -18 -41.5s-26 -17.5 -42 -17.5c-16.667 0 -30.834 5.83301 -42.501 17.5s-17.5 25.5 -17.5 41.5z" />
    <glyph glyph-name="plusminus" unicode="&#xb1;" horiz-adv-x="361" 
d="M238 408v-112h-88v112h-110v84h110v116h88v-116h103v-84h-103zM40 133v85h260v-85h-260z" />
    <glyph glyph-name="twosuperior" unicode="&#xb2;" horiz-adv-x="236" 
d="M204 388v-54.0029h-165v137c0 9.33301 1 17 3 23s8.33301 12.667 19 20l64 43c8 4.66699 12.667 8.83398 14 12.501s2 9.16699 2 16.5v58c0 12.667 -6 19 -18 19h-14c-12.667 0 -19 -6.33301 -19 -19v-29h-60v33c0 46.667 20.667 70 62 70h51c42 0 63 -23.333 63 -70v-82
c0 -9.33301 -1 -16.666 -3 -21.999s-7.33301 -10.666 -16 -15.999l-67 -47c-7.33301 -4.66699 -11.833 -8.66699 -13.5 -12s-2.5 -9 -2.5 -17v-64h100z" />
    <glyph glyph-name="threesuperior" unicode="&#xb3;" horiz-adv-x="251" 
d="M180 531c27.333 -7.33301 41 -21.667 41 -43v-93c0 -40.667 -20.667 -61 -62 -61h-67c-41.333 0 -62 20.333 -62 61v36h65v-23c0 -12.667 7.33301 -19 22 -19h18c14 0 21 7 21 21v68c0 18 -6.66699 27 -20 27l-28 1v47l20 1c14.667 0 22 7.66699 22 23v68
c0 12 -7 18 -21 18h-11c-14 0 -21 -6 -21 -18v-28h-65v27c0 49.333 20.667 74 62 74h59c41.333 0 62 -24.667 62 -74v-73c0 -22 -11.667 -35.333 -35 -40z" />
    <glyph glyph-name="acute" unicode="&#xb4;" horiz-adv-x="152" 
d="M78 562h-68l46 118h88z" />
    <glyph glyph-name="mu" unicode="&#xb5;" horiz-adv-x="401" 
d="M259 718h90v-618c0 -18.667 8.33301 -28 25 -28h20v-72h-65l-40 40c-22 -26.667 -48.667 -40 -80 -40h-73v-182h-86v900h89v-593c0 -25.333 13.333 -38 40 -38h80v631z" />
    <glyph glyph-name="mu" unicode="&#x3bc;" horiz-adv-x="401" 
d="M259 718h90v-618c0 -18.667 8.33301 -28 25 -28h20v-72h-65l-40 40c-22 -26.667 -48.667 -40 -80 -40h-73v-182h-86v900h89v-593c0 -25.333 13.333 -38 40 -38h80v631z" />
    <glyph glyph-name="paragraph" unicode="&#xb6;" horiz-adv-x="469" 
d="M348 -100v746h-169c-28.667 0 -43 -17.333 -43 -52v-121c0 -34.667 14.333 -52 43 -52h39v168h78v-689h-78v440h-68c-73.333 0 -110 42.667 -110 128v127c0 82 36.667 123 110 123h269v-818h-71z" />
    <glyph glyph-name="periodcentered" unicode="&#xb7;" horiz-adv-x="162" 
d="M132 402v-122h-102v122h102z" />
    <glyph glyph-name="periodcentered" unicode="&#x2219;" horiz-adv-x="162" 
d="M132 402v-122h-102v122h102z" />
    <glyph glyph-name="cedilla" unicode="&#xb8;" horiz-adv-x="222" 
d="M50 -137h46c16.667 0 25 8 25 24v14c0 18.667 -8.33301 28 -25 28h-40v97h52v-57h9c36.667 0 55 -19.333 55 -58v-38c0 -36 -18.667 -54.333 -56 -55h-66v45z" />
    <glyph glyph-name="onesuperior" unicode="&#xb9;" horiz-adv-x="160" 
d="M25 614l-11 45c26 12 44.667 31.667 56 59h60v-384h-65v292z" />
    <glyph glyph-name="ordmasculine" unicode="&#xba;" horiz-adv-x="250" 
d="M141 334h-32c-52.667 0 -79 25 -79 75v234c0 50 26.333 75 79 75h32c52.667 0 79 -25 79 -75v-234c0 -50 -26.333 -75 -79 -75zM132 663h-15c-14.667 0 -22 -9.33301 -22 -28v-219c0 -18.667 7.33301 -28 22 -28h15c15.333 0 23 9.33301 23 28v219
c0 18.667 -7.66699 28 -23 28z" />
    <glyph glyph-name="guillemotright" unicode="&#xbb;" horiz-adv-x="387" 
d="M186 556l104 -208l-104 -208h83l106 208l-106 208h-83zM30 556l104 -208l-104 -208h83l106 208l-106 208h-83z" />
    <glyph glyph-name="onequarter" unicode="&#xbc;" horiz-adv-x="509" 
d="M435 748l-325 -778h-57l323 778h59zM432 72v-72h-65v72h-114l-10 54l103 242h86v-241h37v-55h-37zM372 290h-6l-53 -163h54zM41 614l-11 45c26 12 44.667 31.667 56 59h60v-384h-65v292z" />
    <glyph glyph-name="onehalf" unicode="&#xbd;" horiz-adv-x="544" 
d="M435 748l-325 -778h-57l323 778h59zM41 614l-11 45c26 12 44.667 31.667 56 59h60v-384h-65v292zM502 54v-54.0029h-165v137c0 9.33301 1 17 3 23s8.33301 12.667 19 20l64 43c8 4.66699 12.667 8.83398 14 12.501s2 9.16699 2 16.5v58c0 12.667 -6 19 -18 19h-14
c-12.667 0 -19 -6.33301 -19 -19v-29h-60v33c0 46.667 20.667 70 62 70h51c42 0 63 -23.333 63 -70v-82c0 -9.33301 -1 -16.666 -3 -21.999s-7.33301 -10.666 -16 -15.999l-67 -47c-7.33301 -4.66699 -11.833 -8.66699 -13.5 -12s-2.5 -9 -2.5 -17v-64h100z" />
    <glyph glyph-name="threequarters" unicode="&#xbe;" horiz-adv-x="572" 
d="M498 748l-325 -778h-57l323 778h59zM495 72v-72h-65v72h-114l-10 54l103 242h86v-241h37v-55h-37zM435 290h-6l-53 -163h54zM190 531c27.333 -7.33301 41 -21.667 41 -43v-93c0 -40.667 -20.667 -61 -62 -61h-67c-41.333 0 -62 20.333 -62 61v36h65v-23
c0 -12.667 7.33301 -19 22 -19h18c14 0 21 7 21 21v68c0 18 -6.66699 27 -20 27l-28 1v47l20 1c14.667 0 22 7.66699 22 23v68c0 12 -7 18 -21 18h-11c-14 0 -21 -6 -21 -18v-28h-65v27c0 49.333 20.667 74 62 74h59c41.333 0 62 -24.667 62 -74v-73
c0 -22 -11.667 -35.333 -35 -40z" />
    <glyph glyph-name="questiondown" unicode="&#xbf;" horiz-adv-x="376" 
d="M255 524v-120.999c0 -14.667 -1.16699 -26 -3.5 -34s-5.33301 -14.333 -9 -19s-10.167 -10.667 -19.5 -18l-69 -51c-8 -6.66699 -13 -12.834 -15 -18.501s-3 -15.167 -3 -28.5v-100c0 -30.667 10.667 -46 32 -46h47c26.667 0 40 15.333 40 46v24h96v-35
c0 -82 -37 -123 -111 -123h-90c-73.333 0 -110 41 -110 123v146c0 14.667 1.16699 26 3.5 34s6 14.667 11 20s11.5 11 19.5 17l67 52c8 6 13 11.833 15 17.5s3 15.167 3 28.5v86h96zM154 596.001v122h102v-122h-102z" />
    <glyph glyph-name="Agrave" unicode="&#xc0;" horiz-adv-x="382" 
d="M136 0h-96v595c0 82 38.333 123 115 123h72c76.667 0 115 -41 115 -123v-595h-96v263h-110v-263zM246 350v239c0 28 -14 42 -42 42h-26c-28 0 -42 -14 -42 -42v-239h110zM119 883h88l46 -118h-68z" />
    <glyph glyph-name="Aacute" unicode="&#xc1;" horiz-adv-x="382" 
d="M136 0h-96v595c0 82 38.333 123 115 123h72c76.667 0 115 -41 115 -123v-595h-96v263h-110v-263zM246 350v239c0 28 -14 42 -42 42h-26c-28 0 -42 -14 -42 -42v-239h110zM193 765h-68l46 118h88z" />
    <glyph glyph-name="Acircumflex" unicode="&#xc2;" horiz-adv-x="382" 
d="M136 0h-96v595c0 82 38.333 123 115 123h72c76.667 0 115 -41 115 -123v-595h-96v263h-110v-263zM246 350v239c0 28 -14 42 -42 42h-26c-28 0 -42 -14 -42 -42v-239h110zM186 823l-42 -58h-74l86 112h60l86 -112h-74z" />
    <glyph glyph-name="Atilde" unicode="&#xc3;" horiz-adv-x="382" 
d="M136 0h-96v595c0 82 38.333 123 115 123h72c76.667 0 115 -41 115 -123v-595h-96v263h-110v-263zM246 350v239c0 28 -14 42 -42 42h-26c-28 0 -42 -14 -42 -42v-239h110zM295 860c-0.666992 -29.333 -8.66797 -51.498 -24.001 -66.498s-33 -22.833 -53 -23.5
c-7.33301 0 -14 1 -20 3s-11.5 4.16699 -16.5 6.5s-9.66699 4.66602 -14 6.99902s-9.16602 3.5 -14.499 3.5c-12.667 0 -20.667 -8.33301 -24 -25h-49c0 28.667 7 50 21 64s30.667 21.667 50 23c6.66699 0 12.667 -1 18 -3s10.666 -4.33301 15.999 -7s10.666 -5 15.999 -7
s11 -3 17 -3c6.66699 1.33301 12.334 4.16602 17.001 8.49902s7.33398 10.833 8.00098 19.5h52z" />
    <glyph glyph-name="Adieresis" unicode="&#xc4;" horiz-adv-x="382" 
d="M136 0h-96v595c0 82 38.333 123 115 123h72c76.667 0 115 -41 115 -123v-595h-96v263h-110v-263zM246 350v239c0 28 -14 42 -42 42h-26c-28 0 -42 -14 -42 -42v-239h110zM153 865v-100h-80v100h80zM293 865v-100h-80v100h80z" />
    <glyph glyph-name="Aring" unicode="&#xc5;" horiz-adv-x="382" 
d="M136 0h-96v595c0 82 38.333 123 115 123h72c76.667 0 115 -41 115 -123v-595h-96v263h-110v-263zM246 350v239c0 28 -14 42 -42 42h-26c-28 0 -42 -14 -42 -42v-239h110zM263 816c0 -22 -7.16699 -40.333 -21.5 -55s-32.166 -22 -53.499 -22
c-20 0 -37.667 7.33301 -53 22s-23 33 -23 55c0 22.667 7.66699 41.334 23 56.001s33 22 53 22c21.333 0 39.166 -7.33301 53.499 -22s21.5 -33.334 21.5 -56.001zM222 816c0 10 -3.33301 18.333 -10 25s-14.667 10 -24 10s-17.333 -3.33301 -24 -10s-10 -15 -10 -25
s3.33301 -18.333 10 -25s14.667 -10 24 -10s17.333 3.33301 24 10s10 15 10 25z" />
    <glyph glyph-name="AE" unicode="&#xc6;" horiz-adv-x="509" 
d="M136 0h-96v595c0 82 38.333 123 115 123h329v-87h-142v-218h126v-87h-126v-239h142v-87h-238v263h-110v-263zM246 350v281h-68c-28 0 -42 -14 -42 -42v-239h110z" />
    <glyph glyph-name="Ccedilla" unicode="&#xc7;" horiz-adv-x="362" 
d="M332 168v-46c0 -81.333 -38.333 -122 -115 -122h-62c-76.667 0 -115 40.667 -115 122v474c0 81.333 38.333 122 115 122h62c76.667 0 115 -40.667 115 -122v-81h-96v74c0 28 -14.333 42 -43 42h-19c-25.333 0 -38 -14 -38 -42v-460c0 -28 12.667 -42 38 -42h24
c25.333 0 38 14 38 42v39h96zM140 -137h46c16.667 0 25 8 25 24v14c0 18.667 -8.33301 28 -25 28h-40v97h52v-57h9c36.667 0 55 -19.333 55 -58v-38c0 -36 -18.667 -54.333 -56 -55h-66v45z" />
    <glyph glyph-name="Egrave" unicode="&#xc8;" horiz-adv-x="307" 
d="M45 0v718h238v-87h-142v-218h126v-87h-126v-239h142v-87h-238zM75 883h88l46 -118h-68z" />
    <glyph glyph-name="Eacute" unicode="&#xc9;" horiz-adv-x="307" 
d="M45 0v718h238v-87h-142v-218h126v-87h-126v-239h142v-87h-238zM165 765h-68l46 118h88z" />
    <glyph glyph-name="Ecircumflex" unicode="&#xca;" horiz-adv-x="307" 
d="M45 0v718h238v-87h-142v-218h126v-87h-126v-239h142v-87h-238zM158 823l-42 -58h-74l86 112h60l86 -112h-74z" />
    <glyph glyph-name="Edieresis" unicode="&#xcb;" horiz-adv-x="307" 
d="M45 0v718h238v-87h-142v-218h126v-87h-126v-239h142v-87h-238zM129 865v-100h-80v100h80zM269 865v-100h-80v100h80z" />
    <glyph glyph-name="Igrave" unicode="&#xcc;" horiz-adv-x="186" 
d="M45 0v718h96v-718h-96zM15 883h88l46 -118h-68z" />
    <glyph glyph-name="Iacute" unicode="&#xcd;" horiz-adv-x="186" 
d="M45 0v718h96v-718h-96zM95 765h-68l46 118h88z" />
    <glyph glyph-name="Icircumflex" unicode="&#xce;" horiz-adv-x="186" 
d="M45 0v718h96v-718h-96zM94 823l-42 -58h-74l86 112h60l86 -112h-74z" />
    <glyph glyph-name="Idieresis" unicode="&#xcf;" horiz-adv-x="186" 
d="M45 0v718h96v-718h-96zM64 865v-100h-80v100h80zM204 865v-100h-80v100h80z" />
    <glyph glyph-name="Eth" unicode="&#xd0;" horiz-adv-x="387" 
d="M45 0v718h167c90 0 135 -46 135 -138v-476c0 -69.333 -38.333 -104 -115 -104h-187zM141 87h72c25.333 0 38 10.667 38 32v460c0 34.667 -14.333 52 -43 52h-67v-544zM11.127 304v80h203.994v-80h-203.994z" />
    <glyph glyph-name="Ntilde" unicode="&#xd1;" horiz-adv-x="405" 
d="M244 371v347h96v-718h-96v143l-103 327v-470h-96v718h96zM310 860c-0.666992 -29.333 -8.66797 -51.498 -24.001 -66.498s-33 -22.833 -53 -23.5c-7.33301 0 -14 1 -20 3s-11.5 4.16699 -16.5 6.5s-9.66699 4.66602 -14 6.99902s-9.16602 3.5 -14.499 3.5
c-12.667 0 -20.667 -8.33301 -24 -25h-49c0 28.667 7 50 21 64s30.667 21.667 50 23c6.66699 0 12.667 -1 18 -3s10.666 -4.33301 15.999 -7s10.666 -5 15.999 -7s11 -3 17 -3c6.66699 1.33301 12.334 4.16602 17.001 8.49902s7.33398 10.833 8.00098 19.5h52z" />
    <glyph glyph-name="Ograve" unicode="&#xd2;" 
d="M156 0c-77.333 0 -116 40.667 -116 122v473c0 82 38.333 123 115 123h92c76.667 0 115 -41 115 -123v-473c0 -81.333 -38.667 -122 -116 -122h-90zM179 87h49c25.333 0 38 14 38 42v460c0 28 -14.333 42 -43 42h-45c-28 0 -42 -14 -42 -42v-460c0 -28 14.333 -42 43 -42z
M115 883h88l46 -118h-68z" />
    <glyph glyph-name="Oacute" unicode="&#xd3;" 
d="M156 0c-77.333 0 -116 40.667 -116 122v473c0 82 38.333 123 115 123h92c76.667 0 115 -41 115 -123v-473c0 -81.333 -38.667 -122 -116 -122h-90zM179 87h49c25.333 0 38 14 38 42v460c0 28 -14.333 42 -43 42h-45c-28 0 -42 -14 -42 -42v-460c0 -28 14.333 -42 43 -42z
M211 765h-68l46 118h88z" />
    <glyph glyph-name="Ocircumflex" unicode="&#xd4;" 
d="M156 0c-77.333 0 -116 40.667 -116 122v473c0 82 38.333 123 115 123h92c76.667 0 115 -41 115 -123v-473c0 -81.333 -38.667 -122 -116 -122h-90zM179 87h49c25.333 0 38 14 38 42v460c0 28 -14.333 42 -43 42h-45c-28 0 -42 -14 -42 -42v-460c0 -28 14.333 -42 43 -42z
M201 823l-42 -58h-74l86 112h60l86 -112h-74z" />
    <glyph glyph-name="Otilde" unicode="&#xd5;" 
d="M156 0c-77.333 0 -116 40.667 -116 122v473c0 82 38.333 123 115 123h92c76.667 0 115 -41 115 -123v-473c0 -81.333 -38.667 -122 -116 -122h-90zM179 87h49c25.333 0 38 14 38 42v460c0 28 -14.333 42 -43 42h-45c-28 0 -42 -14 -42 -42v-460c0 -28 14.333 -42 43 -42z
M304 860c-0.666992 -29.333 -8.66797 -51.498 -24.001 -66.498s-33 -22.833 -53 -23.5c-7.33301 0 -14 1 -20 3s-11.5 4.16699 -16.5 6.5s-9.66699 4.66602 -14 6.99902s-9.16602 3.5 -14.499 3.5c-12.667 0 -20.667 -8.33301 -24 -25h-49c0 28.667 7 50 21 64
s30.667 21.667 50 23c6.66699 0 12.667 -1 18 -3s10.666 -4.33301 15.999 -7s10.666 -5 15.999 -7s11 -3 17 -3c6.66699 1.33301 12.334 4.16602 17.001 8.49902s7.33398 10.833 8.00098 19.5h52z" />
    <glyph glyph-name="Odieresis" unicode="&#xd6;" 
d="M156 0c-77.333 0 -116 40.667 -116 122v473c0 82 38.333 123 115 123h92c76.667 0 115 -41 115 -123v-473c0 -81.333 -38.667 -122 -116 -122h-90zM179 87h49c25.333 0 38 14 38 42v460c0 28 -14.333 42 -43 42h-45c-28 0 -42 -14 -42 -42v-460c0 -28 14.333 -42 43 -42z
M168 865v-100h-80v100h80zM308 865v-100h-80v100h80z" />
    <glyph glyph-name="multiply" unicode="&#xd7;" horiz-adv-x="378" 
d="M337 414l-63 64l-85 -94l-92 102l-64 -62l100 -95l-94 -84l64 -64l85 93l94 -101l62 62l-101 94z" />
    <glyph glyph-name="Oslash" unicode="&#xd8;" 
d="M301 778l-12 -65.001c48.667 -13.333 73 -52.666 73 -117.999v-473c0 -81.333 -38.667 -122 -116 -122h-90h-1l-11 -60h-45l12 65c-47.333 14 -71 53 -71 117v473c0 82 38.333 123 115 123h90l11 60h45zM266 590.999l-95 -504h57c25.333 0 38 14 38 42v462zM136 135.999
l92 495h-50c-28 0 -42 -14 -42 -42v-453z" />
    <glyph glyph-name="Ugrave" unicode="&#xd9;" 
d="M357 718v-582c0 -90.667 -38.667 -136 -116 -136h-81c-76.667 0 -115 45.667 -115 137v581h96v-584c0 -31.333 14 -47 42 -47h39c26 0 39 15.667 39 47v584h96zM118 883h88l46 -118h-68z" />
    <glyph glyph-name="Uacute" unicode="&#xda;" 
d="M357 718v-582c0 -90.667 -38.667 -136 -116 -136h-81c-76.667 0 -115 45.667 -115 137v581h96v-584c0 -31.333 14 -47 42 -47h39c26 0 39 15.667 39 47v584h96zM203 765h-68l46 118h88z" />
    <glyph glyph-name="Ucircumflex" unicode="&#xdb;" 
d="M357 718v-582c0 -90.667 -38.667 -136 -116 -136h-81c-76.667 0 -115 45.667 -115 137v581h96v-584c0 -31.333 14 -47 42 -47h39c26 0 39 15.667 39 47v584h96zM201 823l-42 -58h-74l86 112h60l86 -112h-74z" />
    <glyph glyph-name="Udieresis" unicode="&#xdc;" 
d="M357 718v-582c0 -90.667 -38.667 -136 -116 -136h-81c-76.667 0 -115 45.667 -115 137v581h96v-584c0 -31.333 14 -47 42 -47h39c26 0 39 15.667 39 47v584h96zM171 865v-100h-80v100h80zM311 865v-100h-80v100h80z" />
    <glyph glyph-name="Yacute" unicode="&#xdd;" horiz-adv-x="350" 
d="M224 0h-96v264l-118 454h95l72 -312h3l65 312h95l-116 -454v-264zM177 765h-68l46 118h88z" />
    <glyph glyph-name="Thorn" unicode="&#xde;" horiz-adv-x="377" 
d="M140 598h93c76 0 114 -41 114 -123v-129c0 -80.667 -38.667 -121 -116 -121h-90v-225h-96v718h95v-120zM141 312h72c25.333 0 38 14 38 42v115c0 28 -14.333 42 -43 42h-67v-199z" />
    <glyph glyph-name="germandbls" unicode="&#xdf;" horiz-adv-x="432" 
d="M178 87h80c25.333 0 38 14 38 42v142c0 26 -11.333 39 -34 39h-63v139h34c18.667 0 28 9.33301 28 28v110c0 29.333 -13.667 44 -41 44h-40c-26 0 -39 -14.667 -39 -44v-587h-96v598c0 80 36.667 120 110 120h86c77.333 0 116 -40.667 116 -122v-112
c0 -64.667 -23.333 -98.667 -70 -102v-5c70 -2 105 -38.333 105 -109v-166c0 -68 -36.333 -102 -109 -102h-105v87z" />
    <glyph glyph-name="agrave" unicode="&#xe0;" horiz-adv-x="382" 
d="M136 0h-96v595c0 82 38.333 123 115 123h72c76.667 0 115 -41 115 -123v-595h-96v263h-110v-263zM246 350v239c0 28 -14 42 -42 42h-26c-28 0 -42 -14 -42 -42v-239h110zM111 890h88l46 -118h-68z" />
    <glyph glyph-name="aacute" unicode="&#xe1;" horiz-adv-x="382" 
d="M136 0h-96v595c0 82 38.333 123 115 123h72c76.667 0 115 -41 115 -123v-595h-96v263h-110v-263zM246 350v239c0 28 -14 42 -42 42h-26c-28 0 -42 -14 -42 -42v-239h110zM198 772h-68l46 118h88z" />
    <glyph glyph-name="acircumflex" unicode="&#xe2;" horiz-adv-x="382" 
d="M136 0h-96v595c0 82 38.333 123 115 123h72c76.667 0 115 -41 115 -123v-595h-96v263h-110v-263zM246 350v239c0 28 -14 42 -42 42h-26c-28 0 -42 -14 -42 -42v-239h110zM136 0h-96v595c0 82 38.333 123 115 123h72c76.667 0 115 -41 115 -123v-595h-96v263h-110v-263z
M246 350v239c0 28 -14 42 -42 42h-26c-28 0 -42 -14 -42 -42v-239h110zM193 830l-42 -58h-74l86 112h60l86 -112h-74z" />
    <glyph glyph-name="atilde" unicode="&#xe3;" horiz-adv-x="382" 
d="M136 0h-96v595c0 82 38.333 123 115 123h72c76.667 0 115 -41 115 -123v-595h-96v263h-110v-263zM246 350v239c0 28 -14 42 -42 42h-26c-28 0 -42 -14 -42 -42v-239h110zM299 857c-0.666992 -29.333 -8.66797 -51.498 -24.001 -66.498s-33 -22.833 -53 -23.5
c-7.33301 0 -14 1 -20 3s-11.5 4.16699 -16.5 6.5s-9.66699 4.66602 -14 6.99902s-9.16602 3.5 -14.499 3.5c-12.667 0 -20.667 -8.33301 -24 -25h-49c0 28.667 7 50 21 64s30.667 21.667 50 23c6.66699 0 12.667 -1 18 -3s10.666 -4.33301 15.999 -7s10.666 -5 15.999 -7
s11 -3 17 -3c6.66699 1.33301 12.334 4.16602 17.001 8.49902s7.33398 10.833 8.00098 19.5h52z" />
    <glyph glyph-name="adieresis" unicode="&#xe4;" horiz-adv-x="382" 
d="M136 0h-96v595c0 82 38.333 123 115 123h72c76.667 0 115 -41 115 -123v-595h-96v263h-110v-263zM246 350v239c0 28 -14 42 -42 42h-26c-28 0 -42 -14 -42 -42v-239h110zM158 862v-100h-80v100h80zM298 862v-100h-80v100h80z" />
    <glyph glyph-name="aring" unicode="&#xe5;" horiz-adv-x="382" 
d="M136 0h-96v595c0 82 38.333 123 115 123h72c76.667 0 115 -41 115 -123v-595h-96v263h-110v-263zM246 350v239c0 28 -14 42 -42 42h-26c-28 0 -42 -14 -42 -42v-239h110zM269 813c0 -22 -7.16699 -40.333 -21.5 -55s-32.166 -22 -53.499 -22
c-20 0 -37.667 7.33301 -53 22s-23 33 -23 55c0 22.667 7.66699 41.334 23 56.001s33 22 53 22c21.333 0 39.166 -7.33301 53.499 -22s21.5 -33.334 21.5 -56.001zM228 813c0 10 -3.33301 18.333 -10 25s-14.667 10 -24 10s-17.333 -3.33301 -24 -10s-10 -15 -10 -25
s3.33301 -18.333 10 -25s14.667 -10 24 -10s17.333 3.33301 24 10s10 15 10 25z" />
    <glyph glyph-name="ae" unicode="&#xe6;" horiz-adv-x="509" 
d="M136 0h-96v595c0 82 38.333 123 115 123h329v-87h-142v-218h126v-87h-126v-239h142v-87h-238v263h-110v-263zM246 350v281h-68c-28 0 -42 -14 -42 -42v-239h110z" />
    <glyph glyph-name="ccedilla" unicode="&#xe7;" horiz-adv-x="362" 
d="M332 168v-46c0 -81.333 -38.333 -122 -115 -122h-62c-76.667 0 -115 40.667 -115 122v474c0 81.333 38.333 122 115 122h62c76.667 0 115 -40.667 115 -122v-81h-96v74c0 28 -14.333 42 -43 42h-19c-25.333 0 -38 -14 -38 -42v-460c0 -28 12.667 -42 38 -42h24
c25.333 0 38 14 38 42v39h96zM143 -137h46c16.667 0 25 8 25 24v14c0 18.667 -8.33301 28 -25 28h-40v97h52v-57h9c36.667 0 55 -19.333 55 -58v-38c0 -36 -18.667 -54.333 -56 -55h-66v45z" />
    <glyph glyph-name="egrave" unicode="&#xe8;" horiz-adv-x="307" 
d="M45 0v718h238v-87h-142v-218h126v-87h-126v-239h142v-87h-238zM84 870h88l46 -118h-68z" />
    <glyph glyph-name="eacute" unicode="&#xe9;" horiz-adv-x="307" 
d="M45 0v718h238v-87h-142v-218h126v-87h-126v-239h142v-87h-238zM178 772h-68l46 118h88z" />
    <glyph glyph-name="ecircumflex" unicode="&#xea;" horiz-adv-x="307" 
d="M45 0v718h238v-87h-142v-218h126v-87h-126v-239h142v-87h-238zM162 820l-42 -58h-74l86 112h60l86 -112h-74z" />
    <glyph glyph-name="edieresis" unicode="&#xeb;" horiz-adv-x="307" 
d="M45 0v718h238v-87h-142v-218h126v-87h-126v-239h142v-87h-238zM137 863v-100h-80v100h80zM277 863v-100h-80v100h80z" />
    <glyph glyph-name="igrave" unicode="&#xec;" horiz-adv-x="186" 
d="M45 0v718h96v-718h-96zM18 880h88l46 -118h-68z" />
    <glyph glyph-name="iacute" unicode="&#xed;" horiz-adv-x="186" 
d="M45 0v718h96v-718h-96zM98 764h-68l46 118h88z" />
    <glyph glyph-name="icircumflex" unicode="&#xee;" horiz-adv-x="186" 
d="M45 0v718h96v-718h-96zM89 823l-42 -58h-74l86 112h60l86 -112h-74z" />
    <glyph glyph-name="idieresis" unicode="&#xef;" horiz-adv-x="186" 
d="M45 0v718h96v-718h-96zM61 862v-100h-80v100h80zM201 862v-100h-80v100h80z" />
    <glyph glyph-name="eth" unicode="&#xf0;" horiz-adv-x="387" 
d="M45 0v718h167c90 0 135 -46 135 -138v-476c0 -69.333 -38.333 -104 -115 -104h-187zM141 87h72c25.333 0 38 10.667 38 32v460c0 34.667 -14.333 52 -43 52h-67v-544zM11.8008 305v80h198.005v-80h-198.005z" />
    <glyph glyph-name="ntilde" unicode="&#xf1;" horiz-adv-x="385" 
d="M244 371v347h96v-718h-96v143l-103 327v-470h-96v718h96zM301 857c-0.666992 -29.333 -8.66797 -51.498 -24.001 -66.498s-33 -22.833 -53 -23.5c-7.33301 0 -14 1 -20 3s-11.5 4.16699 -16.5 6.5s-9.66699 4.66602 -14 6.99902s-9.16602 3.5 -14.499 3.5
c-12.667 0 -20.667 -8.33301 -24 -25h-49c0 28.667 7 50 21 64s30.667 21.667 50 23c6.66699 0 12.667 -1 18 -3s10.666 -4.33301 15.999 -7s10.666 -5 15.999 -7s11 -3 17 -3c6.66699 1.33301 12.334 4.16602 17.001 8.49902s7.33398 10.833 8.00098 19.5h52z" />
    <glyph glyph-name="ograve" unicode="&#xf2;" 
d="M156 0c-77.333 0 -116 40.667 -116 122v473c0 82 38.333 123 115 123h92c76.667 0 115 -41 115 -123v-473c0 -81.333 -38.667 -122 -116 -122h-90zM179 87h49c25.333 0 38 14 38 42v460c0 28 -14.333 42 -43 42h-45c-28 0 -42 -14 -42 -42v-460c0 -28 14.333 -42 43 -42z
M113 880h88l46 -118h-68z" />
    <glyph glyph-name="oacute" unicode="&#xf3;" 
d="M156 0c-77.333 0 -116 40.667 -116 122v473c0 82 38.333 123 115 123h92c76.667 0 115 -41 115 -123v-473c0 -81.333 -38.667 -122 -116 -122h-90zM179 87h49c25.333 0 38 14 38 42v460c0 28 -14.333 42 -43 42h-45c-28 0 -42 -14 -42 -42v-460c0 -28 14.333 -42 43 -42z
M211 762h-68l46 118h88z" />
    <glyph glyph-name="ocircumflex" unicode="&#xf4;" 
d="M156 0c-77.333 0 -116 40.667 -116 122v473c0 82 38.333 123 115 123h92c76.667 0 115 -41 115 -123v-473c0 -81.333 -38.667 -122 -116 -122h-90zM179 87h49c25.333 0 38 14 38 42v460c0 28 -14.333 42 -43 42h-45c-28 0 -42 -14 -42 -42v-460c0 -28 14.333 -42 43 -42z
M198 820l-42 -58h-74l86 112h60l86 -112h-74z" />
    <glyph glyph-name="otilde" unicode="&#xf5;" 
d="M156 0c-77.333 0 -116 40.667 -116 122v473c0 82 38.333 123 115 123h92c76.667 0 115 -41 115 -123v-473c0 -81.333 -38.667 -122 -116 -122h-90zM179 87h49c25.333 0 38 14 38 42v460c0 28 -14.333 42 -43 42h-45c-28 0 -42 -14 -42 -42v-460c0 -28 14.333 -42 43 -42z
M304 857c-0.666992 -29.333 -8.66797 -51.498 -24.001 -66.498s-33 -22.833 -53 -23.5c-7.33301 0 -14 1 -20 3s-11.5 4.16699 -16.5 6.5s-9.66699 4.66602 -14 6.99902s-9.16602 3.5 -14.499 3.5c-12.667 0 -20.667 -8.33301 -24 -25h-49c0 28.667 7 50 21 64
s30.667 21.667 50 23c6.66699 0 12.667 -1 18 -3s10.666 -4.33301 15.999 -7s10.666 -5 15.999 -7s11 -3 17 -3c6.66699 1.33301 12.334 4.16602 17.001 8.49902s7.33398 10.833 8.00098 19.5h52z" />
    <glyph glyph-name="odieresis" unicode="&#xf6;" 
d="M156 0c-77.333 0 -116 40.667 -116 122v473c0 82 38.333 123 115 123h92c76.667 0 115 -41 115 -123v-473c0 -81.333 -38.667 -122 -116 -122h-90zM179 87h49c25.333 0 38 14 38 42v460c0 28 -14.333 42 -43 42h-45c-28 0 -42 -14 -42 -42v-460c0 -28 14.333 -42 43 -42z
M170 862v-100h-80v100h80zM310 862v-100h-80v100h80z" />
    <glyph glyph-name="divide" unicode="&#xf7;" horiz-adv-x="440" 
d="M271 579v-123h-102v123h102zM271 236v-123h-102v123h102zM25 300v86h390v-86h-390z" />
    <glyph glyph-name="oslash" unicode="&#xf8;" 
d="M301 778l-12 -65.001c48.667 -13.333 73 -52.666 73 -117.999v-473c0 -81.333 -38.667 -122 -116 -122h-90h-1l-11 -60h-45l12 65c-47.333 14 -71 53 -71 117v473c0 82 38.333 123 115 123h90l11 60h45zM266 590.999l-95 -504h57c25.333 0 38 14 38 42v462zM136 135.999
l92 495h-50c-28 0 -42 -14 -42 -42v-453z" />
    <glyph glyph-name="ugrave" unicode="&#xf9;" 
d="M357 718v-582c0 -90.667 -38.667 -136 -116 -136h-81c-76.667 0 -115 45.667 -115 137v581h96v-584c0 -31.333 14 -47 42 -47h39c26 0 39 15.667 39 47v584h96zM98 870h88l46 -118h-68z" />
    <glyph glyph-name="uacute" unicode="&#xfa;" 
d="M357 718v-582c0 -90.667 -38.667 -136 -116 -136h-81c-76.667 0 -115 45.667 -115 137v581h96v-584c0 -31.333 14 -47 42 -47h39c26 0 39 15.667 39 47v584h96zM216 752h-68l46 118h88z" />
    <glyph glyph-name="ucircumflex" unicode="&#xfb;" 
d="M357 718v-582c0 -90.667 -38.667 -136 -116 -136h-81c-76.667 0 -115 45.667 -115 137v581h96v-584c0 -31.333 14 -47 42 -47h39c26 0 39 15.667 39 47v584h96zM197 820l-42 -58h-74l86 112h60l86 -112h-74z" />
    <glyph glyph-name="udieresis" unicode="&#xfc;" 
d="M357 718v-582c0 -90.667 -38.667 -136 -116 -136h-81c-76.667 0 -115 45.667 -115 137v581h96v-584c0 -31.333 14 -47 42 -47h39c26 0 39 15.667 39 47v584h96zM170 862v-100h-80v100h80zM310 862v-100h-80v100h80z" />
    <glyph glyph-name="yacute" unicode="&#xfd;" horiz-adv-x="350" 
d="M224 0h-96v264l-118 454h95l72 -312h3l65 312h95l-116 -454v-264zM180 752h-68l46 118h88z" />
    <glyph glyph-name="thorn" unicode="&#xfe;" horiz-adv-x="377" 
d="M140 598h93c76 0 114 -41 114 -123v-129c0 -80.667 -38.667 -121 -116 -121h-90v-225h-96v718h95v-120zM141 312h72c25.333 0 38 14 38 42v115c0 28 -14.333 42 -43 42h-67v-199z" />
    <glyph glyph-name="ydieresis" unicode="&#xff;" horiz-adv-x="350" 
d="M224 0h-96v264l-118 454h95l72 -312h3l65 312h95l-116 -454v-264zM145 862v-100h-80v100h80zM285 862v-100h-80v100h80z" />
    <glyph glyph-name="dotlessi" unicode="&#x131;" horiz-adv-x="186" 
d="M45 0v718h96v-718h-96z" />
    <glyph glyph-name="Lslash" unicode="&#x141;" horiz-adv-x="278" 
d="M215 450v-68l-69 -44v-251h132v-87h-228v277l-37 -23v68l37 23v373h96v-312z" />
    <glyph glyph-name="lslash" unicode="&#x142;" horiz-adv-x="278" 
d="M215 450v-68l-69 -44v-251h132v-87h-228v277l-37 -23v68l37 23v373h96v-312z" />
    <glyph glyph-name="OE" unicode="&#x152;" horiz-adv-x="535" 
d="M515 87v-87h-202v30l-40 -30h-118c-76.667 0 -115 41 -115 123v472c0 82 38.333 123 115 123h118l40 -30v30h202v-88h-142v-217h126v-87h-126v-239h142zM179 87h61c25.333 0 38 14.333 38 43v458c0 28.667 -14.333 43 -43 43h-57c-28 0 -42 -14 -42 -42v-460
c0 -28 14.333 -42 43 -42z" />
    <glyph glyph-name="oe" unicode="&#x153;" horiz-adv-x="535" 
d="M515 87v-87h-202v30l-40 -30h-118c-76.667 0 -115 41 -115 123v472c0 82 38.333 123 115 123h118l40 -30v30h202v-88h-142v-217h126v-87h-126v-239h142zM179 87h61c25.333 0 38 14.333 38 43v458c0 28.667 -14.333 43 -43 43h-57c-28 0 -42 -14 -42 -42v-460
c0 -28 14.333 -42 43 -42z" />
    <glyph glyph-name="Scaron" unicode="&#x160;" horiz-adv-x="360" 
d="M229 525v62.998c0 28.667 -14 43 -42 43h-15c-27.333 0 -41 -14.333 -41 -43v-119c0 -13.333 2.66699 -22.333 8 -27s14 -10.667 26 -18l91 -49c20 -11.333 34.167 -20.166 42.5 -26.499s14.833 -14 19.5 -23s7 -26.167 7 -51.5v-153c0 -80.667 -38.667 -121 -116 -121
h-59c-76.667 0 -115 44 -115 132v36h96v-39c0 -28 14.333 -42 43 -42h17c25.333 0 38 14 38 42v122c0 13.333 -2.66699 22.333 -8 27s-14 10.667 -26 18l-91 51c-20 10.667 -34.5 19.667 -43.5 27s-15.5 16.833 -19.5 28.5s-6 26.834 -6 45.501v147c0 82 38.333 123 115 123
h60c76.667 0 115 -41 115 -123v-70h-96zM180 818.998l42 58h74l-86 -112h-60l-86 112h74z" />
    <glyph glyph-name="scaron" unicode="&#x161;" horiz-adv-x="360" 
d="M229 525v62.998c0 28.667 -14 43 -42 43h-15c-27.333 0 -41 -14.333 -41 -43v-119c0 -13.333 2.66699 -22.333 8 -27s14 -10.667 26 -18l91 -49c20 -11.333 34.167 -20.166 42.5 -26.499s14.833 -14 19.5 -23s7 -26.167 7 -51.5v-153c0 -80.667 -38.667 -121 -116 -121
h-59c-76.667 0 -115 44 -115 132v36h96v-39c0 -28 14.333 -42 43 -42h17c25.333 0 38 14 38 42v122c0 13.333 -2.66699 22.333 -8 27s-14 10.667 -26 18l-91 51c-20 10.667 -34.5 19.667 -43.5 27s-15.5 16.833 -19.5 28.5s-6 26.834 -6 45.501v147c0 82 38.333 123 115 123
h60c76.667 0 115 -41 115 -123v-70h-96zM170 815.998l42 58h74l-86 -112h-60l-86 112h74z" />
    <glyph glyph-name="Ydieresis" unicode="&#x178;" horiz-adv-x="350" 
d="M224 0h-96v264l-118 454h95l72 -312h3l65 312h95l-116 -454v-264zM132 865v-100h-80v100h80zM272 865v-100h-80v100h80z" />
    <glyph glyph-name="florin" unicode="&#x192;" horiz-adv-x="313" 
d="M-65 -99h50.001c17.333 0 27.333 10.667 30 32l59 484h-40l9 78h40l14 121c5.33301 38 14.666 64.5 27.999 79.5s38.666 22.5 75.999 22.5h89l-10 -84h-61c-19.333 0 -30.333 -10.333 -33 -31l-13 -108h90l-9 -78h-90l-61 -498c-5.33301 -38 -14.666 -64.5 -27.999 -79.5
s-38 -22.5 -74 -22.5h-76z" />
    <glyph glyph-name="circumflex" unicode="&#x2c6;" horiz-adv-x="320" 
d="M158 620l-42 -58h-74l86 112h60l86 -112h-74z" />
    <glyph glyph-name="caron" unicode="&#x2c7;" horiz-adv-x="320" 
d="M160 616l42 58h74l-86 -112h-60l-86 112h74z" />
    <glyph glyph-name="breve" unicode="&#x2d8;" horiz-adv-x="272" 
d="M94 673c3.33301 -17.333 7.99902 -30.333 13.999 -39s15.333 -13 28 -13c10.667 0 19.667 4.33301 27 13s12 21.667 14 39h59c-5.33301 -38.667 -18.166 -66.834 -38.499 -84.501s-40.833 -26.5 -61.5 -26.5c-23.333 0 -45 8.83301 -65 26.5s-31.667 45.834 -35 84.501
h58z" />
    <glyph glyph-name="dotaccent" unicode="&#x2d9;" horiz-adv-x="160" 
d="M130 684v-122h-102v122h102z" />
    <glyph glyph-name="ring" unicode="&#x2da;" horiz-adv-x="215" 
d="M185 613c0 -22 -7.16699 -40.333 -21.5 -55s-32.166 -22 -53.499 -22c-20 0 -37.667 7.33301 -53 22s-23 33 -23 55c0 22.667 7.66699 41.334 23 56.001s33 22 53 22c21.333 0 39.166 -7.33301 53.499 -22s21.5 -33.334 21.5 -56.001zM144 613
c0 10 -3.33301 18.333 -10 25s-14.667 10 -24 10s-17.333 -3.33301 -24 -10s-10 -15 -10 -25s3.33301 -18.333 10 -25s14.667 -10 24 -10s17.333 3.33301 24 10s10 15 10 25z" />
    <glyph glyph-name="ogonek" unicode="&#x2db;" horiz-adv-x="218" 
d="M176 24c-28 -22 -47.166 -40.5 -57.499 -55.5s-15.5 -30.5 -15.5 -46.5c0 -22 11.333 -33 34 -33c13.333 0 28.333 5 45 15v-69c-18 -8.66699 -37.667 -13 -59 -13c-24 0 -44.5 7.5 -61.5 22.5s-25.5 34.833 -25.5 59.5c0 9.33301 0.833008 18.5 2.5 27.5
s5.5 18.167 11.5 27.5s14.167 19.5 24.5 30.5s24.166 22.5 41.499 34.5h60z" />
    <glyph glyph-name="tilde" unicode="&#x2dc;" horiz-adv-x="294" 
d="M254 657c-0.666992 -29.333 -8.66797 -51.498 -24.001 -66.498s-33 -22.833 -53 -23.5c-7.33301 0 -14 1 -20 3s-11.5 4.16699 -16.5 6.5s-9.66699 4.66602 -14 6.99902s-9.16602 3.5 -14.499 3.5c-12.667 0 -20.667 -8.33301 -24 -25h-49c0 28.667 7 50 21 64
s30.667 21.667 50 23c6.66699 0 12.667 -1 18 -3s10.666 -4.33301 15.999 -7s10.666 -5 15.999 -7s11 -3 17 -3c6.66699 1.33301 12.334 4.16602 17.001 8.49902s7.33398 10.833 8.00098 19.5h52z" />
    <glyph glyph-name="hungarumlaut" unicode="&#x2dd;" horiz-adv-x="340" 
d="M304 694h-86l-56 -132h63zM177 694h-86l-55 -132h63z" />
    <glyph glyph-name="endash" unicode="&#x2013;" horiz-adv-x="286" 
d="M0 290v71h286v-71h-286z" />
    <glyph glyph-name="emdash" unicode="&#x2014;" horiz-adv-x="470" 
d="M0 290v71h470v-71h-470z" />
    <glyph glyph-name="quoteleft" unicode="&#x2018;" horiz-adv-x="161" 
d="M136 719l-46 -129h47v-135h-67c-26.667 0 -40 13.333 -40 40v95l48 129h58z" />
    <glyph glyph-name="quoteright" unicode="&#x2019;" horiz-adv-x="151" 
d="M15 455l46 129h-47v135h67c26.667 0 40 -13.333 40 -40v-95l-48 -129h-58z" />
    <glyph glyph-name="quotesinglbase" unicode="&#x201a;" horiz-adv-x="161" 
d="M15 -148l46 129h-47v135h67c26.667 0 40 -13.333 40 -40v-95l-48 -129h-58z" />
    <glyph glyph-name="quotedblleft" unicode="&#x201c;" horiz-adv-x="319" 
d="M136 719l-46 -129h47v-135h-67c-26.667 0 -40 13.333 -40 40v95l48 129h58zM294 719l-46 -129h47v-135h-67c-26.667 0 -40 13.333 -40 40v95l48 129h58z" />
    <glyph glyph-name="quotedblright" unicode="&#x201d;" horiz-adv-x="319" 
d="M184 455l46 129h-47v135h67c26.667 0 40 -13.333 40 -40v-95l-48 -129h-58zM25 455l46 129h-47v135h67c26.667 0 40 -13.333 40 -40v-95l-48 -129h-58z" />
    <glyph glyph-name="quotedblbase" unicode="&#x201e;" horiz-adv-x="319" 
d="M184 -148l46 129h-47v135h67c26.667 0 40 -13.333 40 -40v-95l-48 -129h-58zM25 -148l46 129h-47v135h67c26.667 0 40 -13.333 40 -40v-95l-48 -129h-58z" />
    <glyph glyph-name="dagger" unicode="&#x2020;" horiz-adv-x="358" 
d="M338 422v93h-112v203h-95v-203h-111v-93h111v-604h95v604h112z" />
    <glyph glyph-name="daggerdbl" unicode="&#x2021;" horiz-adv-x="358" 
d="M20 93v-93h111v-182h95v182h112v93h-112v329h112v93h-112v203h-95v-203h-111v-93h111v-329h-111z" />
    <glyph glyph-name="bullet" unicode="&#x2022;" horiz-adv-x="192" 
d="M132 473v-182h-132v182h132z" />
    <glyph glyph-name="ellipsis" unicode="&#x2026;" horiz-adv-x="487" 
d="M132 122v-122h-102v122h102zM294 122v-122h-102v122h102zM456 122v-122h-102v122h102z" />
    <glyph glyph-name="perthousand" unicode="&#x2030;" horiz-adv-x="864" 
d="M454 718l-228 -718h-61l228 718h61zM151 334h-32c-52.667 0 -79 25 -79 75v234c0 50 26.333 75 79 75h32c52.667 0 79 -25 79 -75v-234c0 -50 -26.333 -75 -79 -75zM142 663h-15c-14.667 0 -22 -9.33301 -22 -28v-219c0 -18.667 7.33301 -28 22 -28h15
c15.333 0 23 9.33301 23 28v219c0 18.667 -7.66699 28 -23 28zM500 0h-32c-52.667 0 -79 25 -79 75v234c0 50 26.333 75 79 75h32c52.667 0 79 -25 79 -75v-234c0 -50 -26.333 -75 -79 -75zM491 329h-15c-14.667 0 -22 -9.33301 -22 -28v-219c0 -18.667 7.33301 -28 22 -28
h15c15.333 0 23 9.33301 23 28v219c0 18.667 -7.66699 28 -23 28zM745 0h-32c-52.667 0 -79 25 -79 75v234c0 50 26.333 75 79 75h32c52.667 0 79 -25 79 -75v-234c0 -50 -26.333 -75 -79 -75zM736 329h-15c-14.667 0 -22 -9.33301 -22 -28v-219
c0 -18.667 7.33301 -28 22 -28h15c15.333 0 23 9.33301 23 28v219c0 18.667 -7.66699 28 -23 28z" />
    <glyph glyph-name="guilsinglleft" unicode="&#x2039;" horiz-adv-x="231" 
d="M201 140l-103 208l103 208h-83l-106 -208l106 -208h83z" />
    <glyph glyph-name="guilsinglright" unicode="&#x203a;" horiz-adv-x="231" 
d="M30 140h83l106 208l-106 208h-83l104 -208z" />
    <glyph glyph-name="fraction" unicode="&#x2044;" horiz-adv-x="303" 
d="M303 778h-72l-231 -838h71z" />
    <glyph glyph-name="fraction" unicode="&#x2215;" horiz-adv-x="303" 
d="M303 778h-72l-231 -838h71z" />
    <glyph glyph-name="Euro" unicode="&#x20ac;" horiz-adv-x="384" 
d="M237 448v-58h-95v-42h62v-59h-62v-160c0 -28 14 -42 42 -42h25c26 0 39 13.333 39 40v29h96v-35c0 -80.667 -38.667 -121 -116 -121h-67c-76.667 0 -115 42 -115 126v163h-36v59h36v42h-36v58h36v147c0 82 38.333 123 115 123h67c77.333 0 116 -41 116 -123v-39h-96v32
c0 28.667 -14.667 43 -44 43h-20c-28 0 -42 -14 -42 -42v-141h95z" />
    <glyph glyph-name="trademark" unicode="&#x2122;" horiz-adv-x="483" 
d="M188 667v51h-168v-51h56v-367h55v367h57zM339 473l52 245h62v-418h-56l6 274l-42 -198h-43l-42 198l6 -274h-56v418h62z" />
    <glyph glyph-name="minus" unicode="&#x2212;" horiz-adv-x="340" 
d="M40 300v85h260v-85h-260z" />
    <glyph glyph-name="fi" unicode="&#xfb01;" horiz-adv-x="474" 
d="M333 0v631h-192v-218h126v-87h-126v-326h-96v718h288h96v-718h-96z" />
    <glyph glyph-name="fl" unicode="&#xfb02;" horiz-adv-x="571" 
d="M561 0h-228v631h-192v-218h126v-87h-126v-326h-96v718h288h96v-631h132v-87z" />
    <glyph glyph-name=".null" horiz-adv-x="0" 
 />
    <glyph glyph-name="nonmarkingreturn" horiz-adv-x="290" 
 />
    <glyph glyph-name="glyph227" horiz-adv-x="500" 
 />
    <glyph glyph-name="Zaron" horiz-adv-x="0" 
 />
    </font>
</defs>
</svg>
